<svg width="14" height="14" viewBox="0 0 14 14" fill="none" xmlns="http://www.w3.org/2000/svg">
<rect width="14" height="14" fill="#DBDBDB"/>
<g clip-path="url(#clip0_0_1)">
<rect width="1600" height="1050" transform="translate(-716 -166)" fill="#F5F5F5"/>
<rect x="-575" y="-38" width="680" height="422" rx="16" fill="white"/>
<path fill-rule="evenodd" clip-rule="evenodd" d="M2.65625 2.0625C2.43247 2.0625 2.21786 2.15139 2.05963 2.30963C1.90139 2.46786 1.8125 2.68247 1.8125 2.90625V11.3438C1.8125 11.5675 1.90139 11.7821 2.05963 11.9404C2.21786 12.0986 2.43247 12.1875 2.65625 12.1875H11.0938C11.2046 12.1875 11.3143 12.1657 11.4166 12.1233C11.519 12.0809 11.612 12.0187 11.6904 11.9404C11.7687 11.862 11.8309 11.769 11.8733 11.6666C11.9157 11.5643 11.9375 11.4546 11.9375 11.3438V4.875C11.9375 4.56434 12.1893 4.3125 12.5 4.3125C12.8107 4.3125 13.0625 4.56434 13.0625 4.875V11.3438C13.0625 11.6023 13.0116 11.8583 12.9126 12.0972C12.8137 12.336 12.6687 12.5531 12.4859 12.7359C12.3031 12.9187 12.086 13.0637 11.8472 13.1626C11.6083 13.2616 11.3523 13.3125 11.0938 13.3125H2.65625C2.13411 13.3125 1.63335 13.1051 1.26413 12.7359C0.894921 12.3667 0.6875 11.8659 0.6875 11.3438V2.90625C0.6875 2.38411 0.894921 1.88335 1.26413 1.51413C1.63335 1.14492 2.13411 0.9375 2.65625 0.9375H8.54422C8.85488 0.9375 9.10672 1.18934 9.10672 1.5C9.10672 1.81066 8.85488 2.0625 8.54422 2.0625H2.65625Z" fill="#574AE2"/>
<path d="M15.1698 -1.12792C15.1184 -1.18437 15.0562 -1.22981 14.9867 -1.26151C14.9173 -1.2932 14.8422 -1.3105 14.7659 -1.31234C14.6896 -1.31418 14.6137 -1.30053 14.5428 -1.27221C14.4719 -1.2439 14.4075 -1.20151 14.3535 -1.14761L13.9186 -0.714833C13.8659 -0.662093 13.8363 -0.590584 13.8363 -0.516024C13.8363 -0.441464 13.8659 -0.369954 13.9186 -0.317215L14.3173 0.0807542C14.3434 0.107009 14.3745 0.127843 14.4087 0.14206C14.4429 0.156276 14.4796 0.163594 14.5166 0.163594C14.5536 0.163594 14.5903 0.156276 14.6245 0.14206C14.6587 0.127843 14.6898 0.107009 14.7159 0.0807542L15.1399 -0.341121C15.3544 -0.555223 15.3744 -0.903974 15.1698 -1.12792ZM13.0393 0.164075L6.69293 6.49924C6.65446 6.53756 6.62649 6.58514 6.61172 6.6374L6.31817 7.51174C6.31114 7.53546 6.31064 7.56065 6.31673 7.58463C6.32281 7.60861 6.33526 7.63051 6.35276 7.64801C6.37026 7.6655 6.39215 7.67795 6.41614 7.68404C6.44012 7.69013 6.4653 7.68963 6.48903 7.6826L7.36266 7.38904C7.41492 7.37428 7.4625 7.34631 7.50082 7.30783L13.836 0.960716C13.8946 0.901478 13.9275 0.82151 13.9275 0.738177C13.9275 0.654844 13.8946 0.574876 13.836 0.515638L13.4862 0.164075C13.4269 0.104929 13.3465 0.071716 13.2628 0.071716C13.179 0.071716 13.0987 0.104929 13.0393 0.164075Z" fill="#574AE2"/>
</g>
<defs>
<clipPath id="clip0_0_1">
<rect width="1600" height="1050" fill="white" transform="translate(-716 -166)"/>
</clipPath>
</defs>
</svg>
