<svg width="33" height="26" viewBox="0 0 33 26" fill="none" xmlns="http://www.w3.org/2000/svg">
<rect width="33" height="26" fill="#DBDBDB"/>
<g clip-path="url(#clip0_0_1)">
<rect width="1600" height="1050" transform="translate(-34 -373)" fill="#F5F5F5"/>
<g filter="url(#filter0_d_0_1)">
<rect width="101" height="1050" transform="translate(-34 -373)" fill="white"/>
<rect x="-7" y="-10.5" width="47" height="47" rx="7.5" fill="white" stroke="#F5F5F5"/>
<path fill-rule="evenodd" clip-rule="evenodd" d="M5.8125 2.875C4.2592 2.875 3 4.1342 3 5.6875V20.3125C3 21.8658 4.2592 23.125 5.8125 23.125H27.1875C28.7408 23.125 30 21.8658 30 20.3125V5.6875C30 4.1342 28.7408 2.875 27.1875 2.875H5.8125ZM0.75 5.6875C0.75 2.89156 3.01656 0.625 5.8125 0.625H27.1875C29.9834 0.625 32.25 2.89156 32.25 5.6875V20.3125C32.25 23.1084 29.9834 25.375 27.1875 25.375H5.8125C3.01656 25.375 0.75 23.1084 0.75 20.3125V5.6875Z" fill="#1A1A1A"/>
<path fill-rule="evenodd" clip-rule="evenodd" d="M30.4219 10.6094H2.57812V6.39062H30.4219V10.6094ZM5.39062 16.0938C5.39062 14.9288 6.33502 13.9844 7.5 13.9844H10.875C12.04 13.9844 12.9844 14.9288 12.9844 16.0938V17.5C12.9844 18.665 12.04 19.6094 10.875 19.6094H7.5C6.33502 19.6094 5.39062 18.665 5.39062 17.5V16.0938Z" fill="#1A1A1A"/>
</g>
</g>
<defs>
<filter id="filter0_d_0_1" x="-34" y="-373" width="103" height="1050" filterUnits="userSpaceOnUse" color-interpolation-filters="sRGB">
<feFlood flood-opacity="0" result="BackgroundImageFix"/>
<feColorMatrix in="SourceAlpha" type="matrix" values="0 0 0 0 0 0 0 0 0 0 0 0 0 0 0 0 0 0 127 0" result="hardAlpha"/>
<feOffset dx="2"/>
<feComposite in2="hardAlpha" operator="out"/>
<feColorMatrix type="matrix" values="0 0 0 0 0.960784 0 0 0 0 0.960784 0 0 0 0 0.960784 0 0 0 1 0"/>
<feBlend mode="normal" in2="BackgroundImageFix" result="effect1_dropShadow_0_1"/>
<feBlend mode="normal" in="SourceGraphic" in2="effect1_dropShadow_0_1" result="shape"/>
</filter>
<clipPath id="clip0_0_1">
<rect width="1600" height="1050" fill="white" transform="translate(-34 -373)"/>
</clipPath>
</defs>
</svg>
